<svg xmlns="http://www.w3.org/2000/svg" viewBox="0 0 191 68">
	<g>
		<path d="M21.7,44.2h-4.3L13,36.7h-0.1l-4.4,7.5h-4l6.3-10l-6-9.5H9l4.1,6.9h0.1l4.2-6.9h4l-6.1,9.5L21.7,44.2z"/>
		<path d="M31.4,44.5c-1.3,0-2.4-0.2-3.5-0.6c-1-0.4-1.9-1.1-2.7-1.9c-0.7-0.9-1.3-1.9-1.7-3.1c-0.4-1.2-0.6-2.7-0.6-4.3 c0-1.6,0.2-3.1,0.6-4.3c0.4-1.3,1-2.3,1.7-3.2c0.7-0.9,1.6-1.5,2.7-1.9c1-0.4,2.2-0.6,3.5-0.6c1.3,0,2.4,0.2,3.5,0.6 c1,0.4,1.9,1.1,2.7,1.9s1.3,1.9,1.7,3.2c0.4,1.3,0.6,2.7,0.6,4.3c0,1.7-0.2,3.1-0.6,4.3c-0.4,1.2-1,2.3-1.7,3.1s-1.6,1.5-2.7,1.9 C33.9,44.3,32.7,44.5,31.4,44.5z M31.4,41.2c1.4,0,2.5-0.5,3.3-1.4s1.2-2.2,1.2-3.9v-3c0-1.7-0.4-3-1.2-3.9s-1.9-1.4-3.3-1.4 s-2.5,0.5-3.3,1.4s-1.2,2.2-1.2,3.9v3c0,1.7,0.4,3,1.2,3.9C28.9,40.8,30,41.2,31.4,41.2z"/>
		<path d="M47.3,44.2h-3.7V24.7h8.8c0.9,0,1.7,0.1,2.4,0.4s1.3,0.7,1.8,1.2s0.9,1.2,1.1,1.9c0.3,0.7,0.4,1.6,0.4,2.5 c0,1.3-0.3,2.5-0.9,3.5c-0.6,1-1.5,1.7-2.7,2.1l4,7.9h-4.1l-3.6-7.5h-3.5V44.2z M52,33.6c0.7,0,1.3-0.2,1.7-0.6s0.6-0.9,0.6-1.6 v-1.3c0-0.7-0.2-1.2-0.6-1.6c-0.4-0.4-1-0.6-1.7-0.6h-4.7v5.7C47.3,33.6,52,33.6,52,33.6z"/>
		<path d="M69.5,44.5c-1.3,0-2.4-0.2-3.5-0.6c-1-0.4-1.9-1.1-2.7-1.9c-0.7-0.9-1.3-1.9-1.7-3.1c-0.4-1.2-0.6-2.7-0.6-4.3 c0-1.6,0.2-3.1,0.6-4.3c0.4-1.3,1-2.3,1.7-3.2c0.7-0.9,1.6-1.5,2.7-1.9c1-0.4,2.2-0.6,3.5-0.6s2.4,0.2,3.5,0.6 c1,0.4,1.9,1.1,2.7,1.9s1.3,1.9,1.7,3.2c0.4,1.3,0.6,2.7,0.6,4.3c0,1.7-0.2,3.1-0.6,4.3s-1,2.3-1.7,3.1S74,43.4,73,43.9 C71.9,44.3,70.8,44.5,69.5,44.5z M69.5,41.2c1.4,0,2.5-0.5,3.3-1.4s1.2-2.2,1.2-3.9v-3c0-1.7-0.4-3-1.2-3.9 c-0.8-0.9-1.9-1.4-3.3-1.4S67,28.1,66.1,29c-0.8,0.9-1.2,2.2-1.2,3.9v3c0,1.7,0.4,3,1.2,3.9C67,40.8,68.1,41.2,69.5,41.2z"/>
		<path d="M87.3,34.2l-2-4h-0.1v14h-3.5V24.7h4l5.9,10l2,4h0.1v-14h3.5v19.5h-4L87.3,34.2z"/>
		<path d="M100.9,44.2v-3h2.6V27.7h-2.6v-3h8.8v3h-2.6v13.5h2.6v3H100.9z"/>
		<path d="M128.2,30.2h-0.1l-1.5,3.1l-4,7.4l-4-7.4l-1.5-3.1H117v14h-3.5V24.7h4.2l5,9.5h0.1l4.9-9.5h4v19.5h-3.5V30.2z"/>
	</g>
	<path d="M129.8,48.9c0,0,8.1,0,10.9-6.3s0.3-10.7,3-13.8c2.6-3.1,14.3-2.6,19.5-8.3c-0.9,2.6-2.7,4.7-2.7,4.7s19.7-7,25-17.6 c-1,5.9-2.5,13.5-16.3,19.1c12.1-4.9,14.1-5.9,18.8-12.1c-0.1,6.1-9.2,15.9-19.1,16.7c10.6-0.6,16.9-6.1,17.1-7 c-1.2,4.1-7.4,11.3-16.5,11.6c7.3,0,9.8,0,15.3-3.8c-2,5.2-8.7,9.1-15.2,8.6c3.6,1.1,8,0.3,10.8-0.6c-3.4,2.8-8.9,4.2-12.3,4.3 c2.5,0.8,5.3,1,9.1-0.1c-2.8,2.4-7.9,3.3-11.6,2.3c2.4,1.5,6,2,8.5,1.5c-2.9,2.2-6.8,2.8-11.6,1.7c2.4,2.3,4.6,2.4,8.8,2.1 c-3.3,2.7-7.9,3.6-11.9,1.2c3.1,3.2,6.6,3.5,6.6,3.5s-4.4,2-9.4-0.9c1.5,2.2,4.3,4.3,4.3,4.3s-5,0.4-7.8-3.1c0.8,2.9,2,4.6,2,4.6 s-4.6-0.4-5.9-3c0.2,2.5,1,3.7,1,3.7s-3.8,0-4.4-2.9c-0.7,2.8,0.6,3.9,0.6,3.9s-4.4-0.2-5.1-4c-0.1,3.1,1,4.2,1,4.2s-5,0.3-6-4.9 c-0.4,2.4-1.3,4.6-1.3,4.6S125.9,49.5,129.8,48.9z"/>
	<g>
		<path d="M52.2,59.8V49.4h2.6v1.7h0.1c0.2-0.5,0.5-1,1-1.4c0.4-0.4,1.1-0.6,1.8-0.6s1.3,0.2,1.9,0.5c0.5,0.3,0.9,0.9,1.2,1.6l0,0 c0.2-0.6,0.6-1.1,1.1-1.5s1.3-0.6,2.1-0.6c1,0,1.8,0.4,2.4,1.1c0.6,0.7,0.8,1.7,0.8,3v6.6h-2.6v-6.3c0-1.5-0.6-2.2-1.7-2.2 c-0.3,0-0.5,0-0.7,0.1s-0.4,0.2-0.6,0.3c-0.2,0.1-0.3,0.3-0.4,0.5S61,52.6,61,52.9v6.9h-2.6v-6.3c0-1.5-0.6-2.2-1.7-2.2 c-0.2,0-0.5,0-0.7,0.1s-0.4,0.2-0.6,0.3c-0.2,0.1-0.3,0.3-0.4,0.5c-0.1,0.2-0.2,0.5-0.2,0.7v6.9C54.8,59.8,52.2,59.8,52.2,59.8z"/>
		<path d="M74.2,60c-0.7,0-1.4-0.1-2-0.4c-0.6-0.3-1.1-0.6-1.5-1.1s-0.7-1.1-1-1.7c-0.2-0.7-0.3-1.4-0.3-2.3c0-0.8,0.1-1.6,0.3-2.3 c0.2-0.7,0.6-1.2,1-1.7s0.9-0.8,1.5-1.1s1.3-0.4,2-0.4s1.4,0.1,2,0.4c0.6,0.3,1.1,0.6,1.5,1.1s0.7,1,1,1.7c0.2,0.7,0.3,1.4,0.3,2.3 c0,0.8-0.1,1.6-0.3,2.3s-0.6,1.3-1,1.7s-0.9,0.8-1.5,1.1C75.6,59.9,74.9,60,74.2,60z M74.2,58c0.7,0,1.2-0.2,1.6-0.6 c0.4-0.4,0.6-1,0.6-1.8v-1.9c0-0.8-0.2-1.4-0.6-1.8c-0.4-0.4-0.9-0.6-1.6-0.6s-1.2,0.2-1.6,0.6c-0.4,0.4-0.6,1-0.6,1.8v1.9 c0,0.8,0.2,1.4,0.6,1.8S73.5,58,74.2,58z"/>
		<path d="M84.7,60c-1,0-1.8-0.2-2.5-0.5s-1.3-0.8-1.8-1.4l1.6-1.5c0.4,0.4,0.8,0.8,1.3,1c0.5,0.3,1,0.4,1.6,0.4s1.1-0.1,1.3-0.3 c0.3-0.2,0.4-0.5,0.4-0.9c0-0.3-0.1-0.6-0.3-0.7c-0.2-0.2-0.5-0.3-1-0.4l-1-0.1c-1.1-0.1-2-0.5-2.6-1s-0.9-1.2-0.9-2.2 c0-0.5,0.1-1,0.3-1.4c0.2-0.4,0.5-0.8,0.8-1c0.3-0.3,0.8-0.5,1.3-0.7s1-0.2,1.6-0.2c0.5,0,1,0,1.4,0.1s0.8,0.2,1.1,0.3 c0.3,0.1,0.6,0.3,0.9,0.5s0.5,0.4,0.8,0.7l-1.5,1.5c-0.3-0.3-0.7-0.6-1.1-0.8s-0.9-0.3-1.4-0.3c-0.6,0-1,0.1-1.2,0.3 s-0.4,0.5-0.4,0.8s0.1,0.6,0.3,0.8c0.2,0.2,0.6,0.3,1.1,0.4l1.1,0.1c2.3,0.3,3.4,1.3,3.4,3.1c0,0.5-0.1,1-0.3,1.4 c-0.2,0.4-0.5,0.8-0.9,1.1s-0.8,0.5-1.4,0.7C86,60,85.4,60,84.7,60z"/>
		<path d="M95.4,60c-0.8,0-1.5-0.1-2.1-0.4c-0.6-0.3-1.1-0.6-1.5-1.1s-0.7-1.1-0.9-1.7c-0.2-0.7-0.3-1.4-0.3-2.3 c0-0.8,0.1-1.6,0.3-2.3c0.2-0.7,0.5-1.2,0.9-1.7s0.9-0.8,1.5-1.1s1.3-0.4,2.1-0.4c1.1,0,1.9,0.2,2.6,0.7s1.2,1.1,1.5,1.9l-2.1,0.9 c-0.1-0.4-0.3-0.8-0.7-1.1c-0.3-0.3-0.8-0.4-1.3-0.4c-0.7,0-1.3,0.2-1.6,0.7c-0.4,0.5-0.5,1-0.5,1.8v1.9c0,0.7,0.2,1.3,0.5,1.8 c0.4,0.4,0.9,0.7,1.6,0.7c0.6,0,1.1-0.2,1.4-0.5s0.6-0.7,0.8-1.2l2,0.9c-0.3,0.9-0.9,1.6-1.6,2.1C97.3,59.8,96.4,60,95.4,60z"/>
		<path d="M105.6,60c-0.7,0-1.4-0.1-2-0.4c-0.6-0.3-1.1-0.6-1.5-1.1s-0.7-1.1-1-1.7c-0.2-0.7-0.3-1.4-0.3-2.3c0-0.8,0.1-1.6,0.3-2.3 c0.2-0.7,0.6-1.2,1-1.7s0.9-0.8,1.5-1.1s1.3-0.4,2-0.4s1.4,0.1,2,0.4c0.6,0.3,1.1,0.6,1.5,1.1s0.7,1,1,1.7c0.2,0.7,0.3,1.4,0.3,2.3 c0,0.8-0.1,1.6-0.3,2.3c-0.2,0.7-0.6,1.3-1,1.7c-0.4,0.5-0.9,0.8-1.5,1.1C107,59.9,106.3,60,105.6,60z M105.6,58 c0.7,0,1.2-0.2,1.6-0.6c0.4-0.4,0.6-1,0.6-1.8v-1.9c0-0.8-0.2-1.4-0.6-1.8c-0.4-0.4-0.9-0.6-1.6-0.6s-1.2,0.2-1.6,0.6 c-0.4,0.4-0.6,1-0.6,1.8v1.9c0,0.8,0.2,1.4,0.6,1.8S104.9,58,105.6,58z"/>
		<path d="M111.5,49.4h2.5l1.1,4.3l0.8,3.6h0.1l1-3.6l1.2-4.3h2.3l1.3,4.3l1,3.6h0.1l0.8-3.6l1-4.3h2.4l-2.9,10.4h-2.8l-1.3-4.6 l-0.8-2.8h-0.1l-0.8,2.8l-1.3,4.6h-2.7L111.5,49.4z"/>
	</g>
	<circle style="fill: #CC0000" cx="92.8" cy="9.1" r="8"/>
</svg>
