<?xml version="1.0" encoding="utf-8"?>
<!-- Generator: Adobe Illustrator 25.0.0, SVG Export Plug-In . SVG Version: 6.00 Build 0)  -->
<svg version="1.1" id="Слой_1" xmlns="http://www.w3.org/2000/svg" xmlns:xlink="http://www.w3.org/1999/xlink" x="0px" y="0px"
	 viewBox="0 0 180 180" style="enable-background:new 0 0 180 180;" xml:space="preserve">
<style type="text/css">
	.st0{fill:#B9CDDA;}
</style>
<path class="st0" d="M7.9,136.6c0,0,24.3-1.5,31.8-20.8c7.4-19.3-0.8-32.4,6.6-42.1c7.4-9.7,42.6-10.3,57.4-28.5
	c-2.3,8.1-7.3,14.5-7.3,14.5s58.2-24.4,72.2-57.2c-2.1,18-5.3,41.2-45.9,60.3c35.6-16.9,41.5-20.3,54.6-39.7
	c0.9,18.5-24.9,49.4-54.6,53.7c31.8-3.6,49.8-21.3,50.3-24.1c-2.8,12.6-20.3,35.4-47.9,37.8c22.1-1.3,29.6-1.7,45.6-14
	c-5.3,16.1-24.7,29-44.4,28.4c11,2.6,24.3-0.3,32.4-3.7c-9.8,9-26,14.3-36.3,14.9c7.7,2,16.3,2.1,27.4-1.8
	c-7.9,7.6-23.2,11.2-34.4,8.9c7.6,4,18.3,5.1,25.8,3c-8.2,7.2-19.9,9.7-34.8,7.1c7.8,6.4,14.1,6.3,26.9,4.9
	c-9.4,8.7-23.2,12.1-35.8,5.6c9.7,9.1,20.6,9.4,20.6,9.4s-13,6.9-28.5-1.1c5,6.4,13.8,12.2,13.8,12.2s-14.8,2.1-23.9-7.9
	c2.8,8.5,6.7,13.6,6.7,13.6s-13.9-0.3-18.3-7.9c0.9,7.5,3.6,10.9,3.6,10.9s-11.5,0.6-13.8-8c-1.7,8.5,2.3,11.7,2.3,11.7
	s-13.3,0.1-16.1-11.2c0.2,9.3,3.7,12.6,3.7,12.6s-14.9,1.9-18.9-13.7c-0.8,7.2-3.1,14.2-3.1,14.2S-3.6,139.2,7.9,136.6z"/>
</svg>
