<svg xmlns="http://www.w3.org/2000/svg" viewBox="0 0 120 120">
	<style type="text/css">
		path { 
			fill: #000000; 
		}
		@media (prefers-color-scheme: dark) {
			path { 
				fill: #B9CDDA; 
			}
		}
	</style>
	<path d="M3.05,91.06s16.4-1,21.42-14-.57-21.84,4.42-28.37S57.66,41.73,67.6,29.42a32.8,32.8,0,0,1-4.91,9.77S101.94,22.72,111.43.58c-1.38,12.11-3.58,27.81-31,40.66,24-11.4,28-13.72,36.81-26.75C117.87,27,100.49,47.82,80.46,50.7c21.47-2.4,33.56-14.39,34-16.27-1.92,8.5-13.72,23.85-32.29,25.48,14.9-.89,20-1.15,30.74-9.42-3.55,10.83-16.68,19.58-29.93,19.18,7.42,1.76,16.37-.23,21.84-2.47-6.61,6.1-17.54,9.63-24.51,10.07,5.2,1.34,11,1.43,18.46-1.22-5.37,5.13-15.67,7.53-23.23,6a26,26,0,0,0,17.4,2C87.33,89,79.43,90.63,69.41,88.86c5.23,4.31,9.54,4.26,18.13,3.3C81.2,98,71.91,100.33,63.39,95.93a23.52,23.52,0,0,0,13.88,6.38A22,22,0,0,1,58,101.59c3.35,4.29,9.3,8.25,9.3,8.25s-10,1.44-16.16-5.35a35.85,35.85,0,0,0,4.52,9.21s-9.39-.21-12.33-5.35c.63,5,2.43,7.34,2.43,7.34s-7.75.41-9.29-5.39c-1.14,5.76,1.58,7.89,1.58,7.89s-8.95.08-10.87-7.55c.12,6.27,2.47,8.47,2.47,8.47s-10.06,1.26-12.75-9.27a54.41,54.41,0,0,1-2.08,9.58S-4.76,92.8,3.05,91.06Z" 
		transform="translate(-1.21 -0.58)" 
	/>
</svg>
